<svg xmlns="http://www.w3.org/2000/svg">
  <symbol viewBox="0 0 16 16" id="arrow-counterclockwise"><path fill-rule="evenodd" d="M8 3a5 5 0 1 1-4.546 2.914.5.5 0 0 0-.908-.417A6 6 0 1 0 8 2v1z"/><path d="M8 4.466V.534a.25.25 0 0 0-.41-.192L5.23 2.308a.25.25 0 0 0 0 .384l2.36 1.966A.25.25 0 0 0 8 4.466z"/></symbol>
  <symbol viewBox="0 0 16 16" id="arrows-angle-contract"><path fill-rule="evenodd" d="M.172 15.828a.5.5 0 0 0 .707 0l4.096-4.096V14.5a.5.5 0 1 0 1 0v-3.975a.5.5 0 0 0-.5-.5H1.5a.5.5 0 0 0 0 1h2.768L.172 15.121a.5.5 0 0 0 0 .707zM15.828.172a.5.5 0 0 0-.707 0l-4.096 4.096V1.5a.5.5 0 1 0-1 0v3.975a.5.5 0 0 0 .5.5H14.5a.5.5 0 0 0 0-1h-2.768L15.828.879a.5.5 0 0 0 0-.707z"/></symbol>
  <symbol viewBox="0 0 16 16" id="arrows-angle-expand"><path fill-rule="evenodd" d="M5.828 10.172a.5.5 0 0 0-.707 0l-4.096 4.096V11.5a.5.5 0 0 0-1 0v3.975a.5.5 0 0 0 .5.5H4.5a.5.5 0 0 0 0-1H1.732l4.096-4.096a.5.5 0 0 0 0-.707zm4.344-4.344a.5.5 0 0 0 .707 0l4.096-4.096V4.5a.5.5 0 1 0 1 0V.525a.5.5 0 0 0-.5-.5H11.5a.5.5 0 0 0 0 1h2.768l-4.096 4.096a.5.5 0 0 0 0 .707z"/></symbol>
  <symbol viewBox="0 0 16 16" id="nut"><path d="m11.42 2 3.428 6-3.428 6H4.58L1.152 8 4.58 2h6.84zM4.58 1a1 1 0 0 0-.868.504l-3.428 6a1 1 0 0 0 0 .992l3.428 6A1 1 0 0 0 4.58 15h6.84a1 1 0 0 0 .868-.504l3.429-6a1 1 0 0 0 0-.992l-3.429-6A1 1 0 0 0 11.42 1H4.58z"/><path d="M6.848 5.933a2.5 2.5 0 1 0 2.5 4.33 2.5 2.5 0 0 0-2.5-4.33zm-1.78 3.915a3.5 3.5 0 1 1 6.061-3.5 3.5 3.5 0 0 1-6.062 3.5z"/></symbol>
  <symbol viewBox="0 0 16 16" id="grid"><path d="M1 2.5A1.5 1.5 0 0 1 2.5 1h3A1.5 1.5 0 0 1 7 2.5v3A1.5 1.5 0 0 1 5.5 7h-3A1.5 1.5 0 0 1 1 5.5v-3zM2.5 2a.5.5 0 0 0-.5.5v3a.5.5 0 0 0 .5.5h3a.5.5 0 0 0 .5-.5v-3a.5.5 0 0 0-.5-.5h-3zm6.5.5A1.5 1.5 0 0 1 10.5 1h3A1.5 1.5 0 0 1 15 2.5v3A1.5 1.5 0 0 1 13.5 7h-3A1.5 1.5 0 0 1 9 5.5v-3zm1.5-.5a.5.5 0 0 0-.5.5v3a.5.5 0 0 0 .5.5h3a.5.5 0 0 0 .5-.5v-3a.5.5 0 0 0-.5-.5h-3zM1 10.5A1.5 1.5 0 0 1 2.5 9h3A1.5 1.5 0 0 1 7 10.5v3A1.5 1.5 0 0 1 5.5 15h-3A1.5 1.5 0 0 1 1 13.5v-3zm1.5-.5a.5.5 0 0 0-.5.5v3a.5.5 0 0 0 .5.5h3a.5.5 0 0 0 .5-.5v-3a.5.5 0 0 0-.5-.5h-3zm6.5.5A1.5 1.5 0 0 1 10.5 9h3a1.5 1.5 0 0 1 1.5 1.5v3a1.5 1.5 0 0 1-1.5 1.5h-3A1.5 1.5 0 0 1 9 13.5v-3zm1.5-.5a.5.5 0 0 0-.5.5v3a.5.5 0 0 0 .5.5h3a.5.5 0 0 0 .5-.5v-3a.5.5 0 0 0-.5-.5h-3z"/></symbol>
  <symbol viewBox="0 0 16 16" id="cpu"><path d="M5 0a.5.5 0 0 1 .5.5V2h1V.5a.5.5 0 0 1 1 0V2h1V.5a.5.5 0 0 1 1 0V2h1V.5a.5.5 0 0 1 1 0V2A2.5 2.5 0 0 1 14 4.5h1.5a.5.5 0 0 1 0 1H14v1h1.5a.5.5 0 0 1 0 1H14v1h1.5a.5.5 0 0 1 0 1H14v1h1.5a.5.5 0 0 1 0 1H14a2.5 2.5 0 0 1-2.5 2.5v1.5a.5.5 0 0 1-1 0V14h-1v1.5a.5.5 0 0 1-1 0V14h-1v1.5a.5.5 0 0 1-1 0V14h-1v1.5a.5.5 0 0 1-1 0V14A2.5 2.5 0 0 1 2 11.5H.5a.5.5 0 0 1 0-1H2v-1H.5a.5.5 0 0 1 0-1H2v-1H.5a.5.5 0 0 1 0-1H2v-1H.5a.5.5 0 0 1 0-1H2A2.5 2.5 0 0 1 4.5 2V.5A.5.5 0 0 1 5 0zm-.5 3A1.5 1.5 0 0 0 3 4.5v7A1.5 1.5 0 0 0 4.5 13h7a1.5 1.5 0 0 0 1.5-1.5v-7A1.5 1.5 0 0 0 11.5 3h-7zM5 6.5A1.5 1.5 0 0 1 6.5 5h3A1.5 1.5 0 0 1 11 6.5v3A1.5 1.5 0 0 1 9.5 11h-3A1.5 1.5 0 0 1 5 9.5v-3zM6.5 6a.5.5 0 0 0-.5.5v3a.5.5 0 0 0 .5.5h3a.5.5 0 0 0 .5-.5v-3a.5.5 0 0 0-.5-.5h-3z"/></symbol>
  <symbol viewBox="0 0 16 16" id="person"><path d="M8 8a3 3 0 1 0 0-6 3 3 0 0 0 0 6zm2-3a2 2 0 1 1-4 0 2 2 0 0 1 4 0zm4 8c0 1-1 1-1 1H3s-1 0-1-1 1-4 6-4 6 3 6 4zm-1-.004c-.001-.246-.154-.986-.832-1.664C11.516 10.68 10.289 10 8 10c-2.29 0-3.516.68-4.168 1.332-.678.678-.83 1.418-.832 1.664h10z"/></symbol>
  <symbol viewBox="0 0 16 16" id="arrow-bar-down"><path fill-rule="evenodd" d="M1 3.5a.5.5 0 0 1 .5-.5h13a.5.5 0 0 1 0 1h-13a.5.5 0 0 1-.5-.5zM8 6a.5.5 0 0 1 .5.5v5.793l2.146-2.147a.5.5 0 0 1 .708.708l-3 3a.5.5 0 0 1-.708 0l-3-3a.5.5 0 0 1 .708-.708L7.5 12.293V6.5A.5.5 0 0 1 8 6z"/></symbol>
  <symbol viewBox="0 0 16 16" id="arrow-bar-left"><path fill-rule="evenodd" d="M12.5 15a.5.5 0 0 1-.5-.5v-13a.5.5 0 0 1 1 0v13a.5.5 0 0 1-.5.5zM10 8a.5.5 0 0 1-.5.5H3.707l2.147 2.146a.5.5 0 0 1-.708.708l-3-3a.5.5 0 0 1 0-.708l3-3a.5.5 0 1 1 .708.708L3.707 7.5H9.5a.5.5 0 0 1 .5.5z"/></symbol>
  <symbol viewBox="0 0 16 16" id="arrow-bar-right"><path fill-rule="evenodd" d="M6 8a.5.5 0 0 0 .5.5h5.793l-2.147 2.146a.5.5 0 0 0 .708.708l3-3a.5.5 0 0 0 0-.708l-3-3a.5.5 0 0 0-.708.708L12.293 7.5H6.5A.5.5 0 0 0 6 8zm-2.5 7a.5.5 0 0 1-.5-.5v-13a.5.5 0 0 1 1 0v13a.5.5 0 0 1-.5.5z"/></symbol>
  <symbol viewBox="0 0 16 16" id="arrow-bar-up"><path fill-rule="evenodd" d="M8 10a.5.5 0 0 0 .5-.5V3.707l2.146 2.147a.5.5 0 0 0 .708-.708l-3-3a.5.5 0 0 0-.708 0l-3 3a.5.5 0 1 0 .708.708L7.5 3.707V9.5a.5.5 0 0 0 .5.5zm-7 2.5a.5.5 0 0 1 .5-.5h13a.5.5 0 0 1 0 1h-13a.5.5 0 0 1-.5-.5z"/></symbol>
  <symbol viewBox="0 0 16 16" id="cloud"><path d="M4.406 3.342A5.53 5.53 0 0 1 8 2c2.69 0 4.923 2 5.166 4.579C14.758 6.804 16 8.137 16 9.773 16 11.569 14.502 13 12.687 13H3.781C1.708 13 0 11.366 0 9.318c0-1.763 1.266-3.223 2.942-3.593.143-.863.698-1.723 1.464-2.383zm.653.757c-.757.653-1.153 1.44-1.153 2.056v.448l-.445.049C2.064 6.805 1 7.952 1 9.318 1 10.785 2.23 12 3.781 12h8.906C13.98 12 15 10.988 15 9.773c0-1.216-1.02-2.228-2.313-2.228h-.5v-.5C12.188 4.825 10.328 3 8 3a4.53 4.53 0 0 0-2.941 1.1z"/></symbol>
  <symbol viewBox="0 0 16 16" id="cloud-slash"><path fill-rule="evenodd" d="M3.112 5.112a3.125 3.125 0 0 0-.17.613C1.266 6.095 0 7.555 0 9.318 0 11.366 1.708 13 3.781 13H11l-1-1H3.781C2.231 12 1 10.785 1 9.318c0-1.365 1.064-2.513 2.46-2.666l.446-.05v-.447c0-.075.006-.152.018-.231l-.812-.812zm2.55-1.45-.725-.725A5.512 5.512 0 0 1 8 2c2.69 0 4.923 2 5.166 4.579C14.758 6.804 16 8.137 16 9.773a3.2 3.2 0 0 1-1.516 2.711l-.733-.733C14.498 11.378 15 10.626 15 9.773c0-1.216-1.02-2.228-2.313-2.228h-.5v-.5C12.188 4.825 10.328 3 8 3c-.875 0-1.678.26-2.339.661z"/><path d="m13.646 14.354-12-12 .708-.708 12 12-.707.707z"/></symbol>
</svg>
