<svg xmlns="http://www.w3.org/2000/svg" xmlns:xlink="http://www.w3.org/1999/xlink">
  <symbol viewBox="0 0 16 16" id="arrow-counterclockwise"><path fill-rule="evenodd" d="M8 3a5 5 0 1 1-4.546 2.914.5.5 0 0 0-.908-.417A6 6 0 1 0 8 2v1z"/><path d="M8 4.466V.534a.25.25 0 0 0-.41-.192L5.23 2.308a.25.25 0 0 0 0 .384l2.36 1.966A.25.25 0 0 0 8 4.466z"/></symbol>
  <symbol class="bi bi-arrows-angle-contract" viewBox="0 0 16 16" id="arrows-angle-contract"><path fill-rule="evenodd" d="M.172 15.828a.5.5 0 0 0 .707 0l4.096-4.096V14.5a.5.5 0 1 0 1 0v-3.975a.5.5 0 0 0-.5-.5H1.5a.5.5 0 0 0 0 1h2.768L.172 15.121a.5.5 0 0 0 0 .707zM15.828.172a.5.5 0 0 0-.707 0l-4.096 4.096V1.5a.5.5 0 1 0-1 0v3.975a.5.5 0 0 0 .5.5H14.5a.5.5 0 0 0 0-1h-2.768L15.828.879a.5.5 0 0 0 0-.707z"/></symbol>
  <symbol class="bi bi-arrows-angle-expand" viewBox="0 0 16 16" id="arrows-angle-expand"><path fill-rule="evenodd" d="M5.828 10.172a.5.5 0 0 0-.707 0l-4.096 4.096V11.5a.5.5 0 0 0-1 0v3.975a.5.5 0 0 0 .5.5H4.5a.5.5 0 0 0 0-1H1.732l4.096-4.096a.5.5 0 0 0 0-.707zm4.344-4.344a.5.5 0 0 0 .707 0l4.096-4.096V4.5a.5.5 0 1 0 1 0V.525a.5.5 0 0 0-.5-.5H11.5a.5.5 0 0 0 0 1h2.768l-4.096 4.096a.5.5 0 0 0 0 .707z"/></symbol>
  <symbol class="bi bi-nut" viewBox="0 0 16 16" id="nut"><path d="m11.42 2 3.428 6-3.428 6H4.58L1.152 8 4.58 2h6.84zM4.58 1a1 1 0 0 0-.868.504l-3.428 6a1 1 0 0 0 0 .992l3.428 6A1 1 0 0 0 4.58 15h6.84a1 1 0 0 0 .868-.504l3.429-6a1 1 0 0 0 0-.992l-3.429-6A1 1 0 0 0 11.42 1H4.58z"/><path d="M6.848 5.933a2.5 2.5 0 1 0 2.5 4.33 2.5 2.5 0 0 0-2.5-4.33zm-1.78 3.915a3.5 3.5 0 1 1 6.061-3.5 3.5 3.5 0 0 1-6.062 3.5z"/></symbol>
</svg>